<svg width="280" height="84" viewBox="0 0 280 84" fill="none" xmlns="http://www.w3.org/2000/svg">
<path d="M261.28 83.56H18.12C8.13003 83.56 0.0400391 75.46 0.0400391 65.48V18.84C0.0400391 8.85001 8.14003 0.76001 18.12 0.76001H261.27C271.26 0.76001 279.35 8.86001 279.35 18.84V65.48C279.36 75.47 271.26 83.56 261.28 83.56Z" fill="url(#paint0_linear_2108_127)"/>
<path d="M28.28 52.13C24.33 50.44 22.03 47.03 22.03 41.81C22.03 38.29 23.29 35.33 25.58 33.16C27.87 31.01 31.11 29.78 35.18 29.78C39.48 29.78 42.52 31.04 44.52 32.99C46.55 34.94 47.47 37.43 47.47 39.95C47.47 44.28 45.29 46.43 42.11 46.43C39.96 46.43 38.53 45.74 37.73 44.37C37.01 45.92 35.49 46.61 33.57 46.61C32.37 46.61 31.39 46.35 30.68 45.89C29.13 44.92 28.47 43.34 28.47 41.68C28.47 40.76 28.7 39.93 29.07 39.13C29.9 37.58 31.45 36.58 33.6 36.58C35.32 36.58 36.72 37.18 37.5 38.39L38.07 36.76H40.59V40.43C40.59 42.55 40.93 43.1 42.14 43.1C43.4 43.1 43.77 42.01 43.77 39.98C43.77 38.26 43.25 36.63 41.91 35.31C40.59 33.99 38.44 33.19 35.15 33.19C33.14 33.19 31.48 33.56 30.05 34.28C27.21 35.77 25.69 38.44 25.69 41.85C25.69 43.45 26.03 44.86 26.72 46.09C28.1 48.58 30.85 50.07 35.03 50.07C38.21 50.07 40.07 49.07 41.33 47.63L45.03 49.46C42.77 52.1 39.24 53.41 35.03 53.41C32.47 53.39 30.23 52.96 28.28 52.13ZM36.94 41.62C36.94 40.65 36.17 39.84 34.73 39.84C32.95 39.84 32.24 40.59 32.24 41.67C32.24 42.59 33.04 43.3 34.62 43.3C36.34 43.31 36.94 42.33 36.94 41.62Z" fill="#272800"/>
<path d="M45.73 53.22H46.65C48.14 53.22 49.03 53.11 49.46 52.62C49.92 52.13 50.03 51.13 50.03 49.3V33.02H54.76V49.93C54.76 53.11 54.42 55.03 53.3 56.15C52.18 57.27 50.23 57.64 47.05 57.64H45.73V53.22ZM49.25 27.54C49.25 25.39 50.4 24.65 52.4 24.65C54.43 24.65 55.55 25.39 55.55 27.54C55.55 29.6 54.52 30.49 52.4 30.49C50.17 30.5 49.25 29.78 49.25 27.54Z" fill="#272800"/>
<path d="M65.3 50.01C60.2 50.01 57.45 46.94 57.45 42.01V33.01H62.38V41.03C62.38 44.3 63.7 46.02 67.31 46.02C70.46 46.02 72.1199 44.01 72.1199 40.75V33.01H77.08V49.46H72.8999L72.47 45.73C71.38 48.35 69 50.01 65.3 50.01Z" fill="#272800"/>
<path d="M85.1001 47V55.37H80.3401V33.02H84.5201L84.8601 36.03C86.4101 33.65 89.1601 32.48 92.6301 32.48C98.3901 32.48 101.91 35.52 101.91 41.36C101.91 44.28 100.85 46.37 99.0401 47.84C97.2601 49.27 94.9701 49.96 92.4801 49.96C88.7901 49.95 86.4401 48.95 85.1001 47ZM96.9601 41.36C96.9601 38.06 95.2101 36.34 91.0301 36.34C87.1901 36.34 85.0101 38.12 85.0101 41.36C85.0101 44.48 86.9001 46.03 90.9701 46.03C95.3601 46.03 96.9601 44.39 96.9601 41.36Z" fill="#272800"/>
<path d="M109.11 47V55.37H104.35V33.02H108.53L108.87 36.03C110.42 33.65 113.17 32.48 116.64 32.48C122.4 32.48 125.92 35.52 125.92 41.36C125.92 44.28 124.86 46.37 123.05 47.84C121.27 49.27 118.98 49.96 116.49 49.96C112.8 49.95 110.45 48.95 109.11 47ZM120.97 41.36C120.97 38.06 119.22 36.34 115.04 36.34C111.2 36.34 109.02 38.12 109.02 41.36C109.02 44.48 110.91 46.03 114.98 46.03C119.36 46.03 120.97 44.39 120.97 41.36Z" fill="#272800"/>
<path d="M127.73 27.54C127.73 25.39 128.88 24.65 130.88 24.65C132.91 24.65 134.03 25.39 134.03 27.54C134.03 29.6 133 30.49 130.88 30.49C128.64 30.5 127.73 29.78 127.73 27.54ZM128.27 33.02H133.28V49.47H128.27V33.02Z" fill="#272800"/>
<path d="M146.24 50.0101C143.63 50.0101 141.57 49.6401 139.99 48.9501C136.87 47.4901 135.63 44.91 135.63 41.56C135.63 39.9 136.03 38.41 136.83 37.03C138.49 34.22 141.67 32.42 146.6 32.42C148.89 32.42 150.78 32.76 152.45 33.48C155.69 34.91 157.44 37.55 157.44 41.25V43H140.25C140.82 45.15 142.66 46.27 146.64 46.27C149.65 46.27 151.08 45.7 151.88 44.58H157.24C155.46 48.64 151.68 50.0101 146.24 50.0101ZM140.36 39.52H152.62C152.08 37.11 150.27 36.14 146.74 36.14C143.11 36.14 141.05 37.37 140.36 39.52Z" fill="#272800"/>
<path d="M158.7 44.02H164.29C164.83 45.62 166.24 46.28 170.05 46.28C173.63 46.28 174.66 45.5601 174.66 44.4201C174.66 43.8801 174.43 43.56 173.6 43.36C172.77 43.13 171.14 43.02 168.38 42.93C161.85 42.73 159.3 41.38 159.3 38.12C159.3 37 159.62 36.03 160.3 35.2C161.65 33.48 164.31 32.42 168.5 32.42C174.69 32.42 178.04 34.17 179.25 38.15H173.98C173.52 36.46 171.52 35.94 168.45 35.94C167.25 35.94 166.36 36 165.7 36.2C164.44 36.54 164.01 37.12 164.01 37.72C164.01 38.21 164.15 38.55 164.96 38.81C165.76 39.04 167.31 39.18 170.06 39.3C173.81 39.44 176.19 39.84 177.57 40.65C179 41.42 179.49 42.6001 179.49 44.3201C179.49 47.6201 176.22 50.02 169.8 50.02C163.02 50.01 159.53 48.09 158.7 44.02Z" fill="#272800"/>
<path d="M185.6 48.9501C182.45 47.5701 181.13 44.94 181.13 41.36C181.13 39.53 181.59 37.9501 182.48 36.6001C184.29 33.9101 187.64 32.42 192.05 32.42C194.31 32.42 196.21 32.76 197.87 33.48C201.16 34.91 203 37.55 203 41.36C203 43.08 202.63 44.5701 201.83 45.8901C200.28 48.5001 197.1 50.02 191.91 50.02C189.3 50.01 187.21 49.6701 185.6 48.9501ZM198.04 41.36C198.04 38.06 196.29 36.34 192.11 36.34C188.07 36.34 186.09 37.97 186.09 41.36C186.09 44.48 187.87 46.03 192.05 46.03C196.43 46.03 198.04 44.39 198.04 41.36Z" fill="#272800"/>
<path d="M205.42 27.6901H210.32V49.4701H205.42V27.6901Z" fill="#272800"/>
<path fill-rule="evenodd" clip-rule="evenodd" d="M220.1 24.14V60.19H256.15V24.14H220.1ZM250.58 32.11L246.34 52.48C246.24 52.96 245.68 53.18 245.28 52.89L239.5 48.69C239.15 48.44 238.67 48.45 238.33 48.72L235.12 51.33C234.75 51.63 234.19 51.46 234.05 51.01L231.82 43.85L226.07 41.7C225.49 41.48 225.48 40.66 226.06 40.43L249.66 31.33C250.18 31.15 250.69 31.59 250.58 32.11Z" fill="#272800"/>
<path fill-rule="evenodd" clip-rule="evenodd" d="M244.94 35.8L233.7 42.72C233.27 42.99 233.07 43.51 233.21 43.99L234.43 48.26C234.52 48.56 234.96 48.53 235 48.22L235.32 45.88C235.38 45.44 235.59 45.03 235.92 44.73L245.19 36.11C245.35 35.95 245.14 35.67 244.94 35.8Z" fill="#272800"/>
<defs>
<linearGradient id="paint0_linear_2108_127" x1="0.0393391" y1="42.1603" x2="279.358" y2="42.1603" gradientUnits="userSpaceOnUse">
<stop stop-color="#6BDAB6"/>
<stop offset="0.00934388" stop-color="#6BDAB6"/>
<stop offset="0.2809" stop-color="#6BDAB6"/>
<stop offset="0.6685" stop-color="#C0F188"/>
<stop offset="0.8876" stop-color="#C0F188"/>
<stop offset="1" stop-color="#C0F188"/>
</linearGradient>
</defs>
</svg>
