<svg width="280" height="84" viewBox="0 0 280 84" fill="none" xmlns="http://www.w3.org/2000/svg">
<path d="M261.28 83.68H18.12C8.13003 83.68 0.0400391 75.58 0.0400391 65.6V18.96C0.0400391 8.97001 8.14003 0.880005 18.12 0.880005H261.27C271.26 0.880005 279.35 8.98001 279.35 18.96V65.6C279.36 75.58 271.26 83.68 261.28 83.68Z" fill="url(#paint0_linear_2108_158)"/>
<path d="M24.96 53.8501H25.92C27.48 53.8501 28.41 53.7301 28.86 53.2201C29.34 52.7101 29.46 51.6601 29.46 49.7401V32.7001H34.41V50.4001C34.41 53.7301 34.05 55.7401 32.88 56.9101C31.71 58.0801 29.67 58.4701 26.34 58.4701H24.96V53.8501ZM28.6499 26.9701C28.6499 24.7201 29.85 23.9401 31.95 23.9401C34.08 23.9401 35.25 24.7201 35.25 26.9701C35.25 29.1301 34.17 30.0601 31.95 30.0601C29.61 30.0601 28.6499 29.3101 28.6499 26.9701Z" fill="#272800"/>
<path d="M45.45 50.4901C40.11 50.4901 37.23 47.2801 37.23 42.1201V32.7001H42.39V41.1001C42.39 44.5201 43.77 46.3201 47.55 46.3201C50.85 46.3201 52.59 44.2201 52.59 40.8001V32.7001H57.78V49.9201H53.4L52.95 46.0201C51.81 48.7501 49.32 50.4901 45.45 50.4901Z" fill="#272800"/>
<path d="M66.1799 47.3401V56.1001H61.2V32.7001H65.58L65.94 35.8501C67.56 33.3601 70.44 32.1301 74.07 32.1301C80.1 32.1301 83.7899 35.3101 83.7899 41.4301C83.7899 44.4901 82.6799 46.6801 80.7899 48.2101C78.9299 49.7101 76.53 50.4301 73.92 50.4301C70.05 50.4301 67.5899 49.3801 66.1799 47.3401ZM78.6 41.4301C78.6 37.9801 76.77 36.1801 72.39 36.1801C68.37 36.1801 66.09 38.0401 66.09 41.4301C66.09 44.7001 68.07 46.3201 72.33 46.3201C76.92 46.3201 78.6 44.6101 78.6 41.4301Z" fill="#272800"/>
<path d="M91.3199 47.3401V56.1001H86.3398V32.7001H90.7198L91.0798 35.8501C92.6998 33.3601 95.5799 32.1301 99.2099 32.1301C105.24 32.1301 108.93 35.3101 108.93 41.4301C108.93 44.4901 107.82 46.6801 105.93 48.2101C104.07 49.7101 101.67 50.4301 99.0598 50.4301C95.1898 50.4301 92.7299 49.3801 91.3199 47.3401ZM103.74 41.4301C103.74 37.9801 101.91 36.1801 97.5298 36.1801C93.5098 36.1801 91.2298 38.0401 91.2298 41.4301C91.2298 44.7001 93.2098 46.3201 97.4698 46.3201C102.06 46.3201 103.74 44.6101 103.74 41.4301Z" fill="#272800"/>
<path d="M110.82 26.9701C110.82 24.7201 112.02 23.9401 114.12 23.9401C116.25 23.9401 117.42 24.7201 117.42 26.9701C117.42 29.1301 116.34 30.0601 114.12 30.0601C111.78 30.0601 110.82 29.3101 110.82 26.9701ZM111.39 32.7001H116.64V49.9201H111.39V32.7001Z" fill="#272800"/>
<path d="M130.2 50.4901C127.47 50.4901 125.31 50.1001 123.66 49.3801C120.39 47.8501 119.1 45.1501 119.1 41.6401C119.1 39.9001 119.52 38.3401 120.36 36.9001C122.1 33.9601 125.43 32.0701 130.59 32.0701C132.99 32.0701 134.97 32.4301 136.71 33.1801C140.1 34.6801 141.93 37.4401 141.93 41.3101V43.1401H123.93C124.53 45.3901 126.45 46.5601 130.62 46.5601C133.77 46.5601 135.27 45.9601 136.11 44.7901H141.72C139.86 49.0501 135.9 50.4901 130.2 50.4901ZM124.05 39.5101H136.89C136.32 36.9901 134.43 35.9701 130.74 35.9701C126.93 35.9701 124.77 37.2601 124.05 39.5101Z" fill="#272800"/>
<path d="M143.25 44.2201H149.1C149.67 45.9001 151.14 46.5901 155.13 46.5901C158.88 46.5901 159.96 45.8401 159.96 44.6401C159.96 44.0701 159.72 43.7401 158.85 43.5301C157.98 43.2901 156.27 43.17 153.39 43.08C146.55 42.87 143.88 41.4601 143.88 38.0401C143.88 36.8701 144.21 35.8501 144.93 34.9801C146.34 33.1801 149.13 32.0701 153.51 32.0701C159.99 32.0701 163.5 33.9001 164.76 38.0701H159.24C158.76 36.3001 156.66 35.7601 153.45 35.7601C152.19 35.7601 151.26 35.8201 150.57 36.0301C149.25 36.3901 148.8 36.9901 148.8 37.6201C148.8 38.1301 148.95 38.4901 149.79 38.7601C150.63 39.0001 152.25 39.1501 155.13 39.2701C159.06 39.4201 161.55 39.8401 162.99 40.6801C164.49 41.4901 165 42.7201 165 44.5201C165 47.9701 161.58 50.4901 154.86 50.4901C147.78 50.4901 144.12 48.4801 143.25 44.2201Z" fill="#272800"/>
<path d="M171.42 49.3801C168.12 47.9401 166.74 45.1801 166.74 41.4301C166.74 39.5101 167.22 37.8601 168.15 36.4501C170.04 33.6301 173.55 32.0701 178.17 32.0701C180.54 32.0701 182.52 32.4301 184.26 33.1801C187.71 34.6801 189.63 37.4401 189.63 41.4301C189.63 43.2301 189.24 44.7901 188.4 46.1701C186.78 48.9001 183.45 50.4901 178.02 50.4901C175.29 50.4901 173.1 50.1301 171.42 49.3801ZM184.44 41.4301C184.44 37.9801 182.61 36.1801 178.23 36.1801C174 36.1801 171.93 37.8901 171.93 41.4301C171.93 44.7001 173.79 46.3201 178.17 46.3201C182.76 46.3201 184.44 44.6101 184.44 41.4301Z" fill="#272800"/>
<path d="M192.18 27.1201H197.31V49.9201H192.18V27.1201Z" fill="#272800"/>
<path d="M247.47 61.14H223.67C219.82 61.14 216.7 58.02 216.7 54.17V30.37C216.7 26.52 219.82 23.4 223.67 23.4H247.47C251.32 23.4 254.44 26.52 254.44 30.37V54.17C254.43 58.02 251.32 61.14 247.47 61.14Z" fill="#272800"/>
<path d="M223.32 30.8L240.45 53.76L247.81 53.77V53.63L237.93 40.41L246.72 30.78H244.51L236.83 39.08L230.67 30.78L223.32 30.8Z" fill="#D5E08C"/>
<path d="M223.32 53.77L232.76 43.46L233.75 44.78L225.47 53.77H223.32Z" fill="#D5E08C"/>
<path d="M226.51 32.3201H229.82L244.67 52.2201H241.33L226.51 32.3201Z" fill="#272800"/>
<defs>
<linearGradient id="paint0_linear_2108_158" x1="0.0393391" y1="42.2724" x2="279.358" y2="42.2724" gradientUnits="userSpaceOnUse">
<stop stop-color="#6BDAB6"/>
<stop offset="0.00934388" stop-color="#6BDAB6"/>
<stop offset="0.2809" stop-color="#6BDAB6"/>
<stop offset="0.6685" stop-color="#C0F188"/>
<stop offset="0.8876" stop-color="#C0F188"/>
<stop offset="1" stop-color="#C0F188"/>
</linearGradient>
</defs>
</svg>
