<svg width="350" height="95" viewBox="0 0 350 95" fill="none" xmlns="http://www.w3.org/2000/svg">
<path d="M328.05 94.29H21.8801C9.98007 94.29 0.330078 84.64 0.330078 72.74V21.77C0.330078 9.86997 9.98007 0.219971 21.8801 0.219971H328.05C339.95 0.219971 349.6 9.86997 349.6 21.77V72.74C349.61 84.65 339.96 94.29 328.05 94.29Z" fill="url(#paint0_linear_2108_205)"/>
<path d="M52.76 58.36H47.78V36.97H58.7C61.43 36.97 63.56 37.24 65.21 37.75C68.48 38.83 69.83 40.99 69.83 44.5C69.83 49.33 66.35 51.76 59.18 51.73H52.76V58.36ZM52.76 47.5H58.88C63.26 47.5 64.76 46.81 64.76 44.47C64.76 43.45 64.55 42.76 64.1 42.31C63.26 41.38 61.49 41.2 58.73 41.2H52.76V47.5Z" fill="#272800"/>
<path d="M81.0801 58.9299C75.7401 58.9299 72.8601 55.7199 72.8601 50.5599V41.1399H78.0201V49.5399C78.0201 52.9599 79.4001 54.7599 83.1801 54.7599C86.4801 54.7599 88.2201 52.6599 88.2201 49.2399V41.1399H93.4101V58.3599H89.0301L88.5801 54.4599C87.4401 57.1899 84.9501 58.9299 81.0801 58.9299Z" fill="#272800"/>
<path d="M97.4299 41.14H101.84L102.41 45.94C103.34 42.85 105.44 40.96 109.43 40.96H111.62V45.94H109.31C107.51 45.94 106.13 46.12 105.17 46.57C103.25 47.41 102.62 49.27 102.62 52.66V58.3599H97.4299V41.14Z" fill="#272800"/>
<path d="M114.74 41.14H119.15L119.72 45.94C120.65 42.85 122.75 40.96 126.74 40.96H128.93V45.94H126.62C124.82 45.94 123.44 46.12 122.48 46.57C120.56 47.41 119.93 49.27 119.93 52.66V58.3599H114.74V41.14Z" fill="#272800"/>
<path d="M145.34 53.71L143.12 58.36H137.69L148.52 36.97H153.83L164.84 58.36H159.47L157.19 53.71H145.34ZM147.29 49.63H155.15L151.16 41.5L147.29 49.63Z" fill="#272800"/>
<path d="M175.13 58.8699C173.27 58.8699 171.62 58.5699 170.12 57.9699C167.15 56.7699 165.29 54.1899 165.29 49.8999C165.29 47.9199 165.68 46.2699 166.52 44.8599C168.17 42.0999 171.2 40.5699 175.34 40.5699C178.67 40.5699 181.31 41.7099 182.81 43.9599V35.5599H187.79V58.3599H183.41L183.05 55.0899C181.76 57.5499 179.15 58.8699 175.13 58.8699ZM182.99 49.8699C182.99 46.4799 180.71 44.6199 176.69 44.6199C172.31 44.6199 170.48 46.5099 170.48 49.8999C170.48 53.2299 172.28 54.7599 176.66 54.7599C180.92 54.7599 182.99 53.1399 182.99 49.8699Z" fill="#272800"/>
<path d="M200.87 58.8699C199.01 58.8699 197.36 58.5699 195.86 57.9699C192.89 56.7699 191.03 54.1899 191.03 49.8999C191.03 47.9199 191.42 46.2699 192.26 44.8599C193.91 42.0999 196.94 40.5699 201.08 40.5699C204.41 40.5699 207.05 41.7099 208.55 43.9599V35.5599H213.53V58.3599H209.15L208.79 55.0899C207.5 57.5499 204.89 58.8699 200.87 58.8699ZM208.73 49.8699C208.73 46.4799 206.45 44.6199 202.43 44.6199C198.05 44.6199 196.22 46.5099 196.22 49.8999C196.22 53.2299 198.02 54.7599 202.4 54.7599C206.66 54.7599 208.73 53.1399 208.73 49.8699Z" fill="#272800"/>
<path d="M217.73 41.14H222.14L222.71 45.94C223.64 42.85 225.74 40.96 229.73 40.96H231.92V45.94H229.61C227.81 45.94 226.43 46.12 225.47 46.57C223.55 47.41 222.92 49.27 222.92 52.66V58.3599H217.73V41.14Z" fill="#272800"/>
<path d="M244.61 58.9299C241.88 58.9299 239.72 58.5399 238.07 57.8199C234.8 56.2899 233.51 53.5899 233.51 50.0799C233.51 48.3399 233.93 46.7799 234.77 45.3399C236.51 42.3999 239.84 40.5099 245 40.5099C247.4 40.5099 249.38 40.8699 251.12 41.6199C254.51 43.1199 256.34 45.8799 256.34 49.7499V51.5799H238.34C238.94 53.8299 240.86 54.9999 245.03 54.9999C248.18 54.9999 249.68 54.3999 250.52 53.2299H256.13C254.27 57.4899 250.31 58.9299 244.61 58.9299ZM238.46 47.9499H251.3C250.73 45.4299 248.84 44.4099 245.15 44.4099C241.34 44.4099 239.18 45.6999 238.46 47.9499Z" fill="#272800"/>
<path d="M258.41 52.6599H264.26C264.83 54.3399 266.3 55.0299 270.29 55.0299C274.04 55.0299 275.12 54.2799 275.12 53.0799C275.12 52.5099 274.88 52.1799 274.01 51.9699C273.14 51.7299 271.43 51.6099 268.55 51.5199C261.71 51.3099 259.04 49.8999 259.04 46.4799C259.04 45.3099 259.37 44.2899 260.09 43.4199C261.5 41.6199 264.29 40.5099 268.67 40.5099C275.15 40.5099 278.66 42.3399 279.92 46.5099H274.4C273.92 44.7399 271.82 44.1999 268.61 44.1999C267.35 44.1999 266.42 44.2599 265.73 44.4699C264.41 44.8299 263.96 45.4299 263.96 46.0599C263.96 46.5699 264.11 46.9299 264.95 47.1999C265.79 47.4399 267.41 47.5899 270.29 47.7099C274.22 47.8599 276.71 48.2799 278.15 49.1199C279.65 49.9299 280.16 51.1599 280.16 52.9599C280.16 56.4099 276.74 58.9299 270.02 58.9299C262.94 58.9299 259.28 56.9199 258.41 52.6599Z" fill="#272800"/>
<path d="M281.99 52.6599H287.84C288.41 54.3399 289.88 55.0299 293.87 55.0299C297.62 55.0299 298.7 54.2799 298.7 53.0799C298.7 52.5099 298.46 52.1799 297.59 51.9699C296.72 51.7299 295.01 51.6099 292.13 51.5199C285.29 51.3099 282.62 49.8999 282.62 46.4799C282.62 45.3099 282.95 44.2899 283.67 43.4199C285.08 41.6199 287.87 40.5099 292.25 40.5099C298.73 40.5099 302.24 42.3399 303.5 46.5099H297.98C297.5 44.7399 295.4 44.1999 292.19 44.1999C290.93 44.1999 290 44.2599 289.31 44.4699C287.99 44.8299 287.54 45.4299 287.54 46.0599C287.54 46.5699 287.69 46.9299 288.53 47.1999C289.37 47.4399 290.99 47.5899 293.87 47.7099C297.8 47.8599 300.29 48.2799 301.73 49.1199C303.23 49.9299 303.74 51.1599 303.74 52.9599C303.74 56.4099 300.32 58.9299 293.6 58.9299C286.52 58.9299 282.86 56.9199 281.99 52.6599Z" fill="#272800"/>
<defs>
<linearGradient id="paint0_linear_2108_205" x1="0.330178" y1="47.2578" x2="349.607" y2="47.2578" gradientUnits="userSpaceOnUse">
<stop stop-color="#6BDAB6"/>
<stop offset="0.00934388" stop-color="#6BDAB6"/>
<stop offset="0.2809" stop-color="#6BDAB6"/>
<stop offset="0.6685" stop-color="#C0F188"/>
<stop offset="0.8876" stop-color="#C0F188"/>
<stop offset="1" stop-color="#C0F188"/>
</linearGradient>
</defs>
</svg>
