<svg width="17" height="17" viewBox="0 0 17 17" fill="none" xmlns="http://www.w3.org/2000/svg">
<g clip-path="url(#clip0_102_748)">
<path d="M16.5 8.5C16.5 12.9203 12.9203 16.5 8.5 16.5C4.07969 16.5 0.5 12.9203 0.5 8.5C0.5 4.07969 4.07969 0.5 8.5 0.5C12.9203 0.5 16.5 4.07969 16.5 8.5Z" fill="url(#paint0_linear_102_748)"/>
<path d="M7.03291 12.1672C6.77354 12.1672 6.82041 12.0672 6.72666 11.8203L5.96729 9.31406L10.686 6.36719L11.2407 6.51406L10.7798 7.76719L7.03291 12.1672Z" fill="#C8DAEA"/>
<path d="M7.03271 12.1672C7.23271 12.1672 7.32021 12.0734 7.43271 11.9672C7.60615 11.8 9.83271 9.6328 9.83271 9.6328L8.46709 9.29999L7.1999 10.1L7.03271 12.1V12.1672Z" fill="#A9C9DD"/>
<path d="M7.16726 10.1266L10.3938 12.5062C10.7594 12.7062 11.0266 12.6062 11.1204 12.1672L12.4329 5.97969C12.5673 5.44062 12.2266 5.2 11.8735 5.35937L4.16726 8.33281C3.6407 8.54687 3.64695 8.84062 4.07351 8.96719L6.0532 9.58594L10.6329 6.7C10.8469 6.56719 11.0469 6.64062 10.886 6.78594L7.16726 10.1266Z" fill="url(#paint1_linear_102_748)"/>
</g>
<defs>
<linearGradient id="paint0_linear_102_748" x1="10.8447" y1="3.02867" x2="6.84467" y2="12.3619" gradientUnits="userSpaceOnUse">
<stop stop-color="#37AEE2"/>
<stop offset="1" stop-color="#1E96C8"/>
</linearGradient>
<linearGradient id="paint1_linear_102_748" x1="9.09949" y1="8.75032" x2="10.7662" y2="11.417" gradientUnits="userSpaceOnUse">
<stop stop-color="#EFF7FC"/>
<stop offset="1" stop-color="white"/>
</linearGradient>
<clipPath id="clip0_102_748">
<rect width="16" height="16" fill="white" transform="translate(0.5 0.5)"/>
</clipPath>
</defs>
</svg>
