<svg width="17" height="17" viewBox="0 0 17 17" fill="none" xmlns="http://www.w3.org/2000/svg">
<path d="M2.78571 0.5C1.525 0.5 0.5 1.525 0.5 2.78571V14.2143C0.5 15.475 1.525 16.5 2.78571 16.5H14.2143C15.475 16.5 16.5 15.475 16.5 14.2143V2.78571C16.5 1.525 15.475 0.5 14.2143 0.5H2.78571ZM13.3964 3.5L9.68929 7.73571L14.05 13.5H10.6357L7.96429 10.0036L4.90357 13.5H3.20714L7.17143 8.96786L2.98929 3.5H6.48929L8.90714 6.69643L11.7 3.5H13.3964ZM12.0464 12.4857L5.97857 4.46071H4.96786L11.1036 12.4857H12.0429H12.0464Z" fill="white"/>
</svg>
